<svg width="49" height="49" viewBox="0 0 49 49" fill="none" xmlns="http://www.w3.org/2000/svg">
<path d="M42.1971 6.50064H6.80287C3.04594 6.50064 0 9.54658 0 13.3035V35.6965C0 39.4534 3.04594 42.4994 6.80287 42.4994H42.1971C45.954 42.4994 49 39.4534 49 35.6965V13.3035C49 9.54658 45.954 6.50064 42.1971 6.50064ZM17.051 30.7896L7.52475 38.9167C6.85282 39.4902 5.84268 39.4105 5.26932 38.7379C4.69587 38.0659 4.77559 37.0558 5.44828 36.4824L14.9746 28.3553C15.6464 27.7819 16.6565 27.8616 17.2299 28.5343C17.8034 29.2061 17.7236 30.2163 17.051 30.7896ZM24.5 27.6999C23.2258 27.6968 21.9907 27.2734 21.025 26.4383L21.0258 26.439L21.0227 26.4367C21.0235 26.4375 21.0243 26.4375 21.025 26.4383L6.40847 13.752C5.74046 13.1722 5.66936 12.1621 6.24827 11.495C6.82794 10.827 7.83809 10.7559 8.50514 11.3348L23.1258 24.0243C23.4383 24.3024 23.9532 24.5032 24.5 24.5C25.0461 24.5016 25.5523 24.3063 25.882 24.0188L25.889 24.0126L40.4948 11.3349C41.1619 10.756 42.1721 10.8271 42.7517 11.4951C43.3305 12.1621 43.2595 13.1723 42.5915 13.7521L27.971 26.4422C27.0085 27.2686 25.775 27.6983 24.5 27.6999ZM43.7313 38.7379C43.1579 39.4105 42.1478 39.4902 41.476 38.9167L31.9497 30.7896C31.2771 30.2162 31.1974 29.2061 31.7709 28.5343C32.3442 27.8616 33.3544 27.7819 34.0262 28.3553L43.5525 36.4824C44.2251 37.0558 44.3048 38.0659 43.7313 38.7379Z" fill="black"/>
</svg>
